<svg xmlns="http://www.w3.org/2000/svg" viewBox="0 0 251.00 272.50" data-guides="{&quot;vertical&quot;:[],&quot;horizontal&quot;:[]}"><defs/><path fill="#03a4ff" stroke="" fill-opacity="1" stroke-width="1" stroke-opacity="0" id="tSvg16fb4578e60" title="Path 17" d="M69.5 209.5C69.5 209.5 63.5 261 63.5 261C63.5 261 128.5 271 128.5 271C128.5 271 69.5 209.5 69.5 209.5Z"/><path fill="#dd4a00" stroke="" fill-opacity="1" stroke-width="1" stroke-opacity="0" id="tSvg1445e6bd33c" title="Path 1" d="M81 3.5C81 3.5 75.5 77.5 75.5 77.5C75.5 77.5 101 52 101 52C101 52 81 3.5 81 3.5Z"/><path fill="#dd4a00" stroke="" fill-opacity="1" stroke-width="1" stroke-opacity="0" id="tSvg17ec89be91" title="Path 2" d="M103.5 49.5C103.5 49.5 83.5 1.25 83.5 1.25C83.5 1.25 120 34 120 34C120 34 103.5 49.5 103.5 49.5Z"/><path fill="#dd4a00" stroke="" fill-opacity="1" stroke-width="1" stroke-opacity="0" id="tSvgcbbbe580e8" title="Path 3" d="M161.5 34.5C161.5 34.5 197.5 1 197.5 1C197.5 1 179 50 179 50C179 50 161.5 34.5 161.5 34.5Z"/><path fill="#dd4a00" stroke="" fill-opacity="1" stroke-width="1" stroke-opacity="0" id="tSvg83e365c069" title="Path 4" d="M182 54C182 54 199.5 4.5 199.5 4.5C199.5 4.5 205 77 205 77C205 77 182 54 182 54Z"/><path fill="#dd4a00" stroke="" fill-opacity="1" stroke-width="1" stroke-opacity="0" id="tSvg41eb7317f7" title="Path 5" d="M123.5 36.5C123.5 36.5 159 36.5 159 36.5C159 36.5 177.5 54.5 177.5 54.5C177.5 54.5 148 110.5 148 110.5C148 110.5 134 110.5 134 110.5C134 110.5 105 54.5 105 54.5C105 54.5 123.5 36.5 123.5 36.5Z"/><path fill="#e0a025" stroke="" fill-opacity="1" stroke-width="1" stroke-opacity="0" id="tSvgea882cb140" title="Path 6" d="M101 57C101 57 77 83 77 83C77 83 128.5 116 128.5 116C128.5 116 130.5 114 130.5 114C130.5 114 101 57 101 57Z"/><path fill="#e0a025" stroke="" fill-opacity="1" stroke-width="1" stroke-opacity="0" id="tSvg1857ba08f5c" title="Path 7" d="M179.5 56.5C179.5 56.5 205 82.5 205 82.5C205 82.5 152.5 116.5 152.5 116.5C152.5 116.5 150.5 113.5 150.5 113.5C150.5 113.5 179.5 56.5 179.5 56.5Z"/><path fill="#204c89" stroke="" fill-opacity="1" stroke-width="1" stroke-opacity="0" id="tSvgee7db45b5a" title="Path 8" d="M134.5 113C134.5 113 131.5 117 131.5 117C131.5 117 141 123.5 141 123.5C141 123.5 149.5 117 149.5 117C149.5 117 146.5 113 146.5 113C146.5 113 134 113 134 113"/><path fill="#dd4a00" stroke="" fill-opacity="1" stroke-width="1" stroke-opacity="0" title="Path 22" d="M106.5 107C106.5 107 94 140 94 140C94 140 139 198 139 198C139 198 139 126.5 139 126.5C139 126.5 106.5 108 106.5 108" id="tSvg129336776a4"/><path fill="#e0a025" stroke="" fill-opacity="1" stroke-width="1" stroke-opacity="0" title="Path 23" d="M143.5 126.5C143.5 126.5 175.5 107 175.5 107C175.5 107 188.5 137 188.5 137C188.5 137 143.5 198 143.5 198C143.5 198 143.5 126.5 143.5 126.5Z" id="tSvg15aa43d4674"/><path fill="#204c89" stroke="" fill-opacity="1" stroke-width="1" stroke-opacity="0" id="tSvg7a08c6d842" title="Path 10" d="M190.5 139C190.5 139 143.5 201.5 143.5 201.5C143.5 201.5 143.5 271.5 143.5 271.5C143.5 271.5 148 271.5 148 271.5C148 271.5 190.5 139 190.5 139Z"/><path fill="#204c89" stroke="" fill-opacity="1" stroke-width="1" stroke-opacity="0" id="tSvgc44d8cbb27" title="Path 11" d="M139 202C139 202 92.5 141.5 92.5 141.5C92.5 141.5 134.5 271.5 134.5 271.5C134.5 271.5 139 271.5 139 271.5C139 271.5 139 202 139 202Z"/><path fill="#204c89" stroke="" fill-opacity="1" stroke-width="1" stroke-opacity="0" id="tSvg10f8cd5a0f4" title="Path 12" d="M154 262.5C154 262.5 167 222 167 222C167 222 174.5 238.5 174.5 238.5C174.5 238.5 154 262.5 154 262.5Z"/><path fill="#379482" stroke="" fill-opacity="1" stroke-width="1" stroke-opacity="0" id="tSvg45e09a8a95" title="Path 13" d="M169 216.5C169 216.5 177 235 177 235C177 235 245.5 191.5 245.5 191.5C245.5 191.5 193 141.5 193 141.5C193 141.5 169 216.5 169 216.5Z"/><path fill="#204c89" stroke="" fill-opacity="1" stroke-width="1" stroke-opacity="0" id="tSvg170cf8b8040" title="Path 14" d="M181 238C181 238 247 195.5 247 195.5C247 195.5 250 236 250 236C250 236 229 263.5 229 263.5C229 263.5 181 238 181 238"/><path fill="#204c89" stroke="" fill-opacity="1" stroke-width="1" stroke-opacity="0" id="tSvg6dd4da4507" title="Path 15" d="M177 241.5C177 241.5 222.5 265 222.5 265C222.5 265 152 271.5 152 271.5C152 271.5 177 242 177 242"/><path fill="#379482" stroke="" fill-opacity="1" stroke-width="1" stroke-opacity="0" id="tSvg13508d28eb9" title="Path 16" d="M77 211C77 211 128 263.5 128 263.5C128 263.5 113 215 113 215C113 215 77 211 77 211Z"/><path fill="#118bd1" stroke="" fill-opacity="1" stroke-width="1" stroke-opacity="0" id="tSvgfb40d8b050" title="Path 18" d="M63.5 261.5C63.5 261.5 10.5 206.5 10.5 206.5C10.5 206.5 36.5 181.5 36.5 181.5C36.5 181.5 63.5 261.5 63.5 261.5Z"/><path fill="#03a4ff" stroke="" fill-opacity="1" stroke-width="1" stroke-opacity="0" id="tSvg119420ae3cf" title="Path 19" d="M36.5 181.5C36.5 181.5 55 162 55 162C55 162 70.5 210.5 70.5 210.5C70.5 210.5 63.5 261.5 63.5 261.5C63.5 261.5 36.5 181.5 36.5 181.5Z"/><path fill="#118bd1" stroke="" fill-opacity="1" stroke-width="1" stroke-opacity="0" id="tSvg816607dde6" title="Path 20" d="M10.5 201C10.5 201 34.5 176 34.5 176C34.5 176 27 150.5 27 150.5C27 150.5 1 121 1 121C1 121 16.5 153.5 16.5 153.5C16.5 153.5 10.5 201 10.5 201Z"/><path fill="#03a4ff" stroke="" fill-opacity="1" stroke-width="1" stroke-opacity="0" id="tSvg33348acfe1" title="Path 21" d="M34.5 176C34.5 176 54 157.5 54 157.5C54 157.5 1 121 1 121C1 121 26.5 150 26.5 150C26.5 150 34.5 176 34.5 176Z"/><path fill="#118bd1" stroke="" fill-opacity="1" stroke-width="1" stroke-opacity="0" id="tSvgfc3f149b19" title="Path 24" d="M54.5 236.5C54.5 236.5 128.5 271 128.5 271C128.5 271 63.5 261.5 63.5 261.5C63.5 261.5 54.5 236.5 54.5 236.5Z" style=""/></svg>